<?xml version="1.0" encoding="UTF-8"?>
<svg width="48px" height="60px" viewBox="0 0 48 60" version="1.1" xmlns="http://www.w3.org/2000/svg"
    xmlns:xlink="http://www.w3.org/1999/xlink">
    <title>切片</title>
    <g id="页面-1" stroke="none" stroke-width="1" fill="none" fill-rule="evenodd">
        <g id="新版图标" transform="translate(-137.000000, -79.000000)">
            <g id="icon/文件类型/ai" transform="translate(137.000000, 79.000000)">
                <path
                    d="M48,56.4 C48,58.3882251 46.3468975,60 44.3076923,60 L3.69230769,60 C1.65310246,60 0,58.3882251 0,56.4 L0,3.6 C0,1.6117749 1.65310246,0 3.69230769,0 L32.6153846,0 L48,15 L48,56.4 Z"
                    id="Path" fill="#492400"></path>
                <path
                    d="M32.6153846,0 L48,15 L35.0769231,15 C33.7174529,15 32.6153846,13.9254834 32.6153846,12.6 L32.6153846,0 Z"
                    id="矩形" fill="#FF9516"></path>
                <path
                    d="M16.3446154,42.804 L17.7876923,38.94 L24.4,38.94 L25.8430769,42.804 L28.3630769,42.804 L22.44,27.81 L19.7692308,27.81 L13.8461538,42.804 L16.3446154,42.804 Z M23.6892308,37.05 L18.4984615,37.05 L21.0615385,30.267 L21.1476923,30.267 L23.6892308,37.05 Z M31.2707692,30.603 C31.7015385,30.603 32.0892308,30.456 32.3907692,30.183 C32.6923077,29.889 32.8646154,29.532 32.8646154,29.091 C32.8646154,28.65 32.7138462,28.293 32.4123077,28.02 C32.1107692,27.726 31.7230769,27.6 31.2707692,27.6 C30.8184615,27.6 30.4523077,27.726 30.1507692,28.02 C29.8492308,28.293 29.6984615,28.65 29.6984615,29.091 C29.6984615,29.511 29.8492308,29.889 30.1507692,30.183 C30.4523077,30.456 30.8184615,30.603 31.2707692,30.603 Z M32.4123077,42.804 L32.4123077,31.947 L30.1292308,31.947 L30.1292308,42.804 L32.4123077,42.804 Z"
                    id="Ai" fill="#FF9516" fill-rule="nonzero"></path>
            </g>
        </g>
    </g>
</svg>